<?xml version="1.0" encoding="UTF-8"?>
<svg version="1.1" xmlns="http://www.w3.org/2000/svg" width="512" height="512">
<path d="M0 0 C168.96 0 337.92 0 512 0 C512 168.96 512 337.92 512 512 C343.04 512 174.08 512 0 512 C0 343.04 0 174.08 0 0 Z " fill="#9CE2D0" transform="translate(0,0)"/>
<path d="M0 0 C64.96875 -1.36125 64.96875 -1.36125 131.25 -2.75 C144.8409082 -3.15057617 158.43181641 -3.55115234 172.43457031 -3.96386719 C189.24755859 -4.16259766 189.24755859 -4.16259766 197.16033936 -4.19952393 C202.60402851 -4.23998535 208.02755876 -4.39946534 213.46453857 -4.64532471 C241.36163559 -5.86228429 267.22035471 -5.35198613 289.29595917 14.1701135 C306.01265907 29.54868418 315.28610982 46.73858382 316.8319335 69.67052221 C317.26195219 80.01666099 317.01710526 90.31383695 316.54952164 100.65406831 C316.22399462 108.02060511 316.19701029 115.37829854 316.16259766 122.75244141 C315.93403438 142.08934356 315.31972505 161.42014125 314.75 180.75 C313.8425 224.0625 312.935 267.375 312 312 C209.04 312 106.08 312 0 312 C0 209.04 0 106.08 0 0 Z " fill="#FEE5B3" transform="translate(100,100)"/>
<path d="M0 0 C0.77859375 0.05929688 1.5571875 0.11859375 2.359375 0.1796875 C3.51179688 0.24542969 3.51179688 0.24542969 4.6875 0.3125 C8.26911712 1.41009234 9.76766173 3.15211648 12.109375 6.0546875 C12.54886367 8.91070226 12.69957487 11.14522207 12.59765625 13.98046875 C12.59058151 14.72805954 12.58350677 15.47565033 12.57621765 16.24589539 C12.54835145 18.62070152 12.48563632 20.99310101 12.421875 23.3671875 C12.39678168 24.98238768 12.37397031 26.59762504 12.35351562 28.21289062 C12.30281036 32.16181651 12.20496939 36.10557712 12.109375 40.0546875 C18.709375 40.0546875 25.309375 40.0546875 32.109375 40.0546875 C32.05136719 37.65832031 31.99335938 35.26195312 31.93359375 32.79296875 C31.89456101 30.46300564 31.8642237 28.13307943 31.8347168 25.80297852 C31.80962541 24.18790289 31.77554374 22.57294024 31.73217773 20.95825195 C31.67128214 18.63204044 31.64311376 16.30733391 31.62109375 13.98046875 C31.59528732 13.26256668 31.5694809 12.54466461 31.54289246 11.80500793 C31.54066666 7.79534246 31.95723383 6.23548401 34.57739258 3.12182617 C35.41294678 2.43967041 36.24850098 1.75751465 37.109375 1.0546875 C37.439375 0.7246875 37.769375 0.3946875 38.109375 0.0546875 C40 0 40 0 42.359375 0.1796875 C43.51179688 0.24542969 43.51179688 0.24542969 44.6875 0.3125 C48.26911712 1.41009234 49.76766173 3.15211648 52.109375 6.0546875 C52.54886367 8.91070226 52.69957487 11.14522207 52.59765625 13.98046875 C52.58704414 15.10185493 52.58704414 15.10185493 52.57621765 16.24589539 C52.54835145 18.62070152 52.48563632 20.99310101 52.421875 23.3671875 C52.39678168 24.98238768 52.37397031 26.59762504 52.35351562 28.21289062 C52.30281036 32.16181651 52.20496939 36.10557712 52.109375 40.0546875 C58.709375 40.0546875 65.309375 40.0546875 72.109375 40.0546875 C72.02236328 36.46013672 72.02236328 36.46013672 71.93359375 32.79296875 C71.89456101 30.46300564 71.8642237 28.13307943 71.8347168 25.80297852 C71.80962541 24.18790289 71.77554374 22.57294024 71.73217773 20.95825195 C71.67128214 18.63204044 71.64311376 16.30733391 71.62109375 13.98046875 C71.59528732 13.26256668 71.5694809 12.54466461 71.54289246 11.80500793 C71.54066666 7.79534246 71.95723383 6.23548401 74.57739258 3.12182617 C75.41294678 2.43967041 76.24850098 1.75751465 77.109375 1.0546875 C77.439375 0.7246875 77.769375 0.3946875 78.109375 0.0546875 C80 0 80 0 82.359375 0.1796875 C83.51179688 0.24542969 83.51179688 0.24542969 84.6875 0.3125 C88.26911712 1.41009234 89.76766173 3.15211648 92.109375 6.0546875 C92.54886367 8.91070226 92.69957487 11.14522207 92.59765625 13.98046875 C92.58704414 15.10185493 92.58704414 15.10185493 92.57621765 16.24589539 C92.54835145 18.62070152 92.48563632 20.99310101 92.421875 23.3671875 C92.39678168 24.98238768 92.37397031 26.59762504 92.35351562 28.21289062 C92.30281036 32.16181651 92.20496939 36.10557712 92.109375 40.0546875 C98.709375 40.0546875 105.309375 40.0546875 112.109375 40.0546875 C112.02236328 36.46013672 112.02236328 36.46013672 111.93359375 32.79296875 C111.89456101 30.46300564 111.8642237 28.13307943 111.8347168 25.80297852 C111.80962541 24.18790289 111.77554374 22.57294024 111.73217773 20.95825195 C111.67128214 18.63204044 111.64311376 16.30733391 111.62109375 13.98046875 C111.59528732 13.26256668 111.5694809 12.54466461 111.54289246 11.80500793 C111.54066666 7.79534246 111.95723383 6.23548401 114.57739258 3.12182617 C115.41294678 2.43967041 116.24850098 1.75751465 117.109375 1.0546875 C117.439375 0.7246875 117.769375 0.3946875 118.109375 0.0546875 C120 0 120 0 122.359375 0.1796875 C123.51179688 0.24542969 123.51179688 0.24542969 124.6875 0.3125 C128.26911712 1.41009234 129.76766173 3.15211648 132.109375 6.0546875 C132.54886367 8.91070226 132.69957487 11.14522207 132.59765625 13.98046875 C132.58704414 15.10185493 132.58704414 15.10185493 132.57621765 16.24589539 C132.54835145 18.62070152 132.48563632 20.99310101 132.421875 23.3671875 C132.39678168 24.98238768 132.37397031 26.59762504 132.35351562 28.21289062 C132.30281036 32.16181651 132.20496939 36.10557712 132.109375 40.0546875 C138.709375 40.0546875 145.309375 40.0546875 152.109375 40.0546875 C152.02236328 36.46013672 152.02236328 36.46013672 151.93359375 32.79296875 C151.89456101 30.46300564 151.8642237 28.13307943 151.8347168 25.80297852 C151.80962541 24.18790289 151.77554374 22.57294024 151.73217773 20.95825195 C151.67128214 18.63204044 151.64311376 16.30733391 151.62109375 13.98046875 C151.59528732 13.26256668 151.5694809 12.54466461 151.54289246 11.80500793 C151.54066666 7.79534246 151.95723383 6.23548401 154.57739258 3.12182617 C155.41294678 2.43967041 156.24850098 1.75751465 157.109375 1.0546875 C157.439375 0.7246875 157.769375 0.3946875 158.109375 0.0546875 C160 0 160 0 162.359375 0.1796875 C163.51179688 0.24542969 163.51179688 0.24542969 164.6875 0.3125 C168.26911712 1.41009234 169.76766173 3.15211648 172.109375 6.0546875 C172.54886367 8.91070226 172.69957487 11.14522207 172.59765625 13.98046875 C172.59058151 14.72805954 172.58350677 15.47565033 172.57621765 16.24589539 C172.54835145 18.62070152 172.48563632 20.99310101 172.421875 23.3671875 C172.39678168 24.98238768 172.37397031 26.59762504 172.35351562 28.21289062 C172.30281036 32.16181651 172.20496939 36.10557712 172.109375 40.0546875 C178.709375 40.0546875 185.309375 40.0546875 192.109375 40.0546875 C192.05136719 37.65832031 191.99335938 35.26195312 191.93359375 32.79296875 C191.89456101 30.46300564 191.8642237 28.13307943 191.8347168 25.80297852 C191.80962541 24.18790289 191.77554374 22.57294024 191.73217773 20.95825195 C191.67128214 18.63204044 191.64311376 16.30733391 191.62109375 13.98046875 C191.59528732 13.26256668 191.5694809 12.54466461 191.54289246 11.80500793 C191.54066666 7.79534246 191.95723383 6.23548401 194.57739258 3.12182617 C195.41294678 2.43967041 196.24850098 1.75751465 197.109375 1.0546875 C197.439375 0.7246875 197.769375 0.3946875 198.109375 0.0546875 C200 0 200 0 202.359375 0.1796875 C203.12765625 0.22351562 203.8959375 0.26734375 204.6875 0.3125 C208.26911712 1.41009234 209.76766173 3.15211648 212.109375 6.0546875 C212.54886367 8.91070226 212.69957487 11.14522207 212.59765625 13.98046875 C212.59058151 14.72805954 212.58350677 15.47565033 212.57621765 16.24589539 C212.54835145 18.62070152 212.48563632 20.99310101 212.421875 23.3671875 C212.39678168 24.98238768 212.37397031 26.59762504 212.35351562 28.21289062 C212.29855147 32.16107569 212.21234027 36.10747439 212.109375 40.0546875 C213.10791504 40.03897705 214.10645508 40.0232666 215.13525391 40.00708008 C218.85880387 39.95256131 222.5823189 39.91825816 226.30615234 39.88989258 C227.91428572 39.87485574 229.52237844 39.85442078 231.13037109 39.82836914 C233.44899564 39.79175928 235.76707549 39.77491028 238.0859375 39.76171875 C238.79867828 39.74623489 239.51141907 39.73075104 240.24575806 39.71479797 C246.28563939 39.71278608 250.15127543 41.37268726 254.71563721 45.29345703 C255.58452576 46.16599121 256.45341431 47.03852539 257.34863281 47.9375 C257.83397491 48.42079773 258.31931702 48.90409546 258.81936646 49.40203857 C260.40775575 50.98744105 261.98519146 52.58326678 263.5625 54.1796875 C264.66956062 55.289809 265.77721584 56.39933784 266.88543701 57.50830078 C269.1997185 59.82717184 271.5090187 62.15084907 273.81445312 64.47851562 C276.76889274 67.46130252 279.73200107 70.43528346 282.69841385 73.40615845 C284.98256767 75.69446855 287.2638767 77.98559579 289.54415131 80.277771 C290.63613442 81.37544731 291.72858453 82.47265925 292.82151031 83.56939697 C294.34620644 85.10096936 295.86746803 86.63586836 297.38769531 88.171875 C298.25340149 89.04440918 299.11910767 89.91694336 300.01104736 90.81591797 C304.17390838 95.25740091 304.3825802 98.39746002 304.3046875 104.22265625 C304.30044266 105.41487541 304.30044266 105.41487541 304.29611206 106.63117981 C304.28492205 109.16833588 304.25981991 111.70513822 304.234375 114.2421875 C304.22434366 115.96288552 304.21521808 117.68358909 304.20703125 119.40429688 C304.18498661 123.62122993 304.15046506 127.83789875 304.109375 132.0546875 C305.51630615 132.03112183 305.51630615 132.03112183 306.95166016 132.00708008 C310.45171705 131.95576785 313.9513707 131.91824878 317.45166016 131.88989258 C318.96279227 131.87486207 320.47388118 131.85443186 321.98486328 131.82836914 C324.16449687 131.79173061 326.34355075 131.77490412 328.5234375 131.76171875 C330.48724365 131.73815308 330.48724365 131.73815308 332.49072266 131.71411133 C336.41840631 132.08377255 338.78540466 132.96166989 342.109375 135.0546875 C344.59323559 138.78047839 344.4897962 140.64180152 344.109375 145.0546875 C342.80433666 148.14556778 341.94776024 149.61521983 338.96411133 151.17919922 C335.4044791 152.27086442 332.34407581 152.2796652 328.62109375 152.25 C327.91789505 152.2471701 327.21469635 152.24434021 326.4901886 152.24142456 C324.25890608 152.23028901 322.02803483 152.20519747 319.796875 152.1796875 C318.27800062 152.1696491 316.7591199 152.16052476 315.24023438 152.15234375 C311.52966456 152.13207849 307.81997652 152.09291923 304.109375 152.0546875 C304.109375 158.6546875 304.109375 165.2546875 304.109375 172.0546875 C307.46996094 172.00248047 307.46996094 172.00248047 310.8984375 171.94921875 C313.08283211 171.92578204 315.26721238 171.90758901 317.45166016 171.88989258 C318.96279227 171.87486207 320.47388118 171.85443186 321.98486328 171.82836914 C324.16449687 171.79173061 326.34355075 171.77490412 328.5234375 171.76171875 C330.48724365 171.73815308 330.48724365 171.73815308 332.49072266 171.71411133 C336.41840631 172.08377255 338.78540466 172.96166989 342.109375 175.0546875 C344.59323559 178.78047839 344.4897962 180.64180152 344.109375 185.0546875 C342.80433666 188.14556778 341.94776024 189.61521983 338.96411133 191.17919922 C335.4044791 192.27086442 332.34407581 192.2796652 328.62109375 192.25 C327.91789505 192.2471701 327.21469635 192.24434021 326.4901886 192.24142456 C324.25890608 192.23028901 322.02803483 192.20519747 319.796875 192.1796875 C318.27800062 192.1696491 316.7591199 192.16052476 315.24023438 192.15234375 C311.52966456 192.13207849 307.81997652 192.09291923 304.109375 192.0546875 C304.109375 198.6546875 304.109375 205.2546875 304.109375 212.0546875 C307.46996094 212.00248047 307.46996094 212.00248047 310.8984375 211.94921875 C313.08283211 211.92578204 315.26721238 211.90758901 317.45166016 211.88989258 C318.96279227 211.87486207 320.47388118 211.85443186 321.98486328 211.82836914 C324.16449687 211.79173061 326.34355075 211.77490412 328.5234375 211.76171875 C330.48724365 211.73815308 330.48724365 211.73815308 332.49072266 211.71411133 C336.41840631 212.08377255 338.78540466 212.96166989 342.109375 215.0546875 C344.59323559 218.78047839 344.4897962 220.64180152 344.109375 225.0546875 C342.80433666 228.14556778 341.94776024 229.61521983 338.96411133 231.17919922 C335.4044791 232.27086442 332.34407581 232.2796652 328.62109375 232.25 C327.91789505 232.2471701 327.21469635 232.24434021 326.4901886 232.24142456 C324.25890608 232.23028901 322.02803483 232.20519747 319.796875 232.1796875 C318.27800062 232.1696491 316.7591199 232.16052476 315.24023438 232.15234375 C311.52966456 232.13207849 307.81997652 232.09291923 304.109375 232.0546875 C304.109375 238.6546875 304.109375 245.2546875 304.109375 252.0546875 C307.46996094 252.00248047 307.46996094 252.00248047 310.8984375 251.94921875 C313.08283211 251.92578204 315.26721238 251.90758901 317.45166016 251.88989258 C318.96279227 251.87486207 320.47388118 251.85443186 321.98486328 251.82836914 C324.16449687 251.79173061 326.34355075 251.77490412 328.5234375 251.76171875 C330.48724365 251.73815308 330.48724365 251.73815308 332.49072266 251.71411133 C336.41840631 252.08377255 338.78540466 252.96166989 342.109375 255.0546875 C344.59323559 258.78047839 344.4897962 260.64180152 344.109375 265.0546875 C342.80433666 268.14556778 341.94776024 269.61521983 338.96411133 271.17919922 C335.4044791 272.27086442 332.34407581 272.2796652 328.62109375 272.25 C327.5662957 272.24575516 327.5662957 272.24575516 326.4901886 272.24142456 C324.25890608 272.23028901 322.02803483 272.20519747 319.796875 272.1796875 C318.27800062 272.1696491 316.7591199 272.16052476 315.24023438 272.15234375 C311.52966456 272.13207849 307.81997652 272.09291923 304.109375 272.0546875 C304.109375 278.6546875 304.109375 285.2546875 304.109375 292.0546875 C307.46996094 292.00248047 307.46996094 292.00248047 310.8984375 291.94921875 C313.08283211 291.92578204 315.26721238 291.90758901 317.45166016 291.88989258 C318.96279227 291.87486207 320.47388118 291.85443186 321.98486328 291.82836914 C324.16449687 291.79173061 326.34355075 291.77490412 328.5234375 291.76171875 C329.8326416 291.7460083 331.1418457 291.73029785 332.49072266 291.71411133 C336.41840631 292.08377255 338.78540466 292.96166989 342.109375 295.0546875 C344.59323559 298.78047839 344.4897962 300.64180152 344.109375 305.0546875 C342.80433666 308.14556778 341.94776024 309.61521983 338.96411133 311.17919922 C335.4044791 312.27086442 332.34407581 312.2796652 328.62109375 312.25 C327.5662957 312.24575516 327.5662957 312.24575516 326.4901886 312.24142456 C324.25890608 312.23028901 322.02803483 312.20519747 319.796875 312.1796875 C318.27800062 312.1696491 316.7591199 312.16052476 315.24023438 312.15234375 C311.52966456 312.13207849 307.81997652 312.09291923 304.109375 312.0546875 C304.109375 318.6546875 304.109375 325.2546875 304.109375 332.0546875 C307.46996094 332.00248047 307.46996094 332.00248047 310.8984375 331.94921875 C313.08283211 331.92578204 315.26721238 331.90758901 317.45166016 331.88989258 C318.96279227 331.87486207 320.47388118 331.85443186 321.98486328 331.82836914 C324.16449687 331.79173061 326.34355075 331.77490412 328.5234375 331.76171875 C329.8326416 331.7460083 331.1418457 331.73029785 332.49072266 331.71411133 C336.41840631 332.08377255 338.78540466 332.96166989 342.109375 335.0546875 C344.59323559 338.78047839 344.4897962 340.64180152 344.109375 345.0546875 C342.80433666 348.14556778 341.94776024 349.61521983 338.96411133 351.17919922 C335.4044791 352.27086442 332.34407581 352.2796652 328.62109375 352.25 C327.5662957 352.24575516 327.5662957 352.24575516 326.4901886 352.24142456 C324.25890608 352.23028901 322.02803483 352.20519747 319.796875 352.1796875 C318.27800062 352.1696491 316.7591199 352.16052476 315.24023438 352.15234375 C311.52981579 352.13037163 307.81963558 352.09588797 304.109375 352.0546875 C304.12508545 352.9926416 304.1407959 353.9305957 304.15698242 354.89697266 C304.20829465 358.39702955 304.24581372 361.8966832 304.27416992 365.39697266 C304.28920043 366.90810477 304.30963064 368.41919368 304.33569336 369.93017578 C304.37233189 372.10980937 304.38915838 374.28886325 304.40234375 376.46875 C304.4180542 377.7779541 304.43376465 379.0871582 304.44995117 380.43603516 C304.07581878 384.41122539 303.34450516 386.75232755 301.109375 390.0546875 C296.67504953 392.99475221 291.12695964 392.30654652 285.99609375 392.25 C285.02654251 392.2471701 284.05699127 392.24434021 283.05805969 392.24142456 C279.97087095 392.23025741 276.88397561 392.20515902 273.796875 392.1796875 C271.69987399 392.16965323 269.60286842 392.16052816 267.50585938 392.15234375 C262.3735854 392.13032938 257.2415299 392.09582321 252.109375 392.0546875 C252.12508545 392.9926416 252.1407959 393.9305957 252.15698242 394.89697266 C252.20829465 398.39702955 252.24581372 401.8966832 252.27416992 405.39697266 C252.28920043 406.90810477 252.30963064 408.41919368 252.33569336 409.93017578 C252.37233189 412.10980937 252.38915838 414.28886325 252.40234375 416.46875 C252.4180542 417.7779541 252.43376465 419.0871582 252.44995117 420.43603516 C252.08195477 424.34602986 251.17529797 426.73668061 249.109375 430.0546875 C245.52471042 432.18610968 242.22314745 432.65461265 238.109375 432.0546875 C235.00772731 429.50444385 233.38371084 427.87769503 232.109375 424.0546875 C232.0248363 421.6136099 231.99331714 419.20209537 232.01171875 416.76171875 C232.01384117 415.70267586 232.01384117 415.70267586 232.01600647 414.62223816 C232.02159736 412.37051124 232.03414812 410.11888429 232.046875 407.8671875 C232.05189118 406.33919415 232.05645388 404.81119923 232.06054688 403.28320312 C232.0707123 399.54029522 232.09028931 395.79760307 232.109375 392.0546875 C225.509375 392.0546875 218.909375 392.0546875 212.109375 392.0546875 C212.14417969 394.29507812 212.17898438 396.53546875 212.21484375 398.84375 C212.23828046 401.02814461 212.25647349 403.21252488 212.27416992 405.39697266 C212.28920043 406.90810477 212.30963064 408.41919368 212.33569336 409.93017578 C212.37233189 412.10980937 212.38915838 414.28886325 212.40234375 416.46875 C212.4180542 417.7779541 212.43376465 419.0871582 212.44995117 420.43603516 C212.08195477 424.34602986 211.17529797 426.73668061 209.109375 430.0546875 C205.52471042 432.18610968 202.22314745 432.65461265 198.109375 432.0546875 C195.00772731 429.50444385 193.38371084 427.87769503 192.109375 424.0546875 C192.0248363 421.6136099 191.99331714 419.20209537 192.01171875 416.76171875 C192.01384117 415.70267586 192.01384117 415.70267586 192.01600647 414.62223816 C192.02159736 412.37051124 192.03414812 410.11888429 192.046875 407.8671875 C192.05189118 406.33919415 192.05645388 404.81119923 192.06054688 403.28320312 C192.0707123 399.54029522 192.09028931 395.79760307 192.109375 392.0546875 C185.509375 392.0546875 178.909375 392.0546875 172.109375 392.0546875 C172.14417969 394.29507812 172.17898438 396.53546875 172.21484375 398.84375 C172.23828046 401.02814461 172.25647349 403.21252488 172.27416992 405.39697266 C172.28920043 406.90810477 172.30963064 408.41919368 172.33569336 409.93017578 C172.37233189 412.10980937 172.38915838 414.28886325 172.40234375 416.46875 C172.4180542 417.7779541 172.43376465 419.0871582 172.44995117 420.43603516 C172.08195477 424.34602986 171.17529797 426.73668061 169.109375 430.0546875 C165.52471042 432.18610968 162.22314745 432.65461265 158.109375 432.0546875 C155.00772731 429.50444385 153.38371084 427.87769503 152.109375 424.0546875 C152.0248363 421.6136099 151.99331714 419.20209537 152.01171875 416.76171875 C152.01384117 415.70267586 152.01384117 415.70267586 152.01600647 414.62223816 C152.02159736 412.37051124 152.03414812 410.11888429 152.046875 407.8671875 C152.05189118 406.33919415 152.05645388 404.81119923 152.06054688 403.28320312 C152.0707123 399.54029522 152.09028931 395.79760307 152.109375 392.0546875 C145.509375 392.0546875 138.909375 392.0546875 132.109375 392.0546875 C132.14417969 394.29507812 132.17898438 396.53546875 132.21484375 398.84375 C132.23828046 401.02814461 132.25647349 403.21252488 132.27416992 405.39697266 C132.28920043 406.90810477 132.30963064 408.41919368 132.33569336 409.93017578 C132.37233189 412.10980937 132.38915838 414.28886325 132.40234375 416.46875 C132.42590942 418.43255615 132.42590942 418.43255615 132.44995117 420.43603516 C132.08195477 424.34602986 131.17529797 426.73668061 129.109375 430.0546875 C125.52471042 432.18610968 122.22314745 432.65461265 118.109375 432.0546875 C115.00772731 429.50444385 113.38371084 427.87769503 112.109375 424.0546875 C112.0248363 421.6136099 111.99331714 419.20209537 112.01171875 416.76171875 C112.01384117 415.70267586 112.01384117 415.70267586 112.01600647 414.62223816 C112.02159736 412.37051124 112.03414812 410.11888429 112.046875 407.8671875 C112.05189118 406.33919415 112.05645388 404.81119923 112.06054688 403.28320312 C112.0707123 399.54029522 112.09028931 395.79760307 112.109375 392.0546875 C105.509375 392.0546875 98.909375 392.0546875 92.109375 392.0546875 C92.14417969 394.29507812 92.17898437 396.53546875 92.21484375 398.84375 C92.23828046 401.02814461 92.25647349 403.21252488 92.27416992 405.39697266 C92.28920043 406.90810477 92.30963064 408.41919368 92.33569336 409.93017578 C92.37233189 412.10980937 92.38915838 414.28886325 92.40234375 416.46875 C92.42590942 418.43255615 92.42590942 418.43255615 92.44995117 420.43603516 C92.08195477 424.34602986 91.17529797 426.73668061 89.109375 430.0546875 C85.52471042 432.18610968 82.22314745 432.65461265 78.109375 432.0546875 C75.00772731 429.50444385 73.38371084 427.87769503 72.109375 424.0546875 C72.0248363 421.6136099 71.99331714 419.20209537 72.01171875 416.76171875 C72.01384117 415.70267586 72.01384117 415.70267586 72.01600647 414.62223816 C72.02159736 412.37051124 72.03414812 410.11888429 72.046875 407.8671875 C72.05189118 406.33919415 72.05645388 404.81119923 72.06054688 403.28320312 C72.0707123 399.54029522 72.09028931 395.79760307 72.109375 392.0546875 C65.509375 392.0546875 58.909375 392.0546875 52.109375 392.0546875 C52.14417969 394.29507812 52.17898437 396.53546875 52.21484375 398.84375 C52.23828046 401.02814461 52.25647349 403.21252488 52.27416992 405.39697266 C52.28920043 406.90810477 52.30963064 408.41919368 52.33569336 409.93017578 C52.37233189 412.10980937 52.38915838 414.28886325 52.40234375 416.46875 C52.42590942 418.43255615 52.42590942 418.43255615 52.44995117 420.43603516 C52.08195477 424.34602986 51.17529797 426.73668061 49.109375 430.0546875 C45.52471042 432.18610968 42.22314745 432.65461265 38.109375 432.0546875 C35.00772731 429.50444385 33.38371084 427.87769503 32.109375 424.0546875 C32.0248363 421.6136099 31.99331714 419.20209537 32.01171875 416.76171875 C32.0131337 416.05569016 32.01454865 415.34966156 32.01600647 414.62223816 C32.02159736 412.37051124 32.03414812 410.11888429 32.046875 407.8671875 C32.05189118 406.33919415 32.05645388 404.81119923 32.06054688 403.28320312 C32.0707123 399.54029522 32.09028931 395.79760307 32.109375 392.0546875 C25.509375 392.0546875 18.909375 392.0546875 12.109375 392.0546875 C12.14417969 394.29507812 12.17898437 396.53546875 12.21484375 398.84375 C12.23828046 401.02814461 12.25647349 403.21252488 12.27416992 405.39697266 C12.28920043 406.90810477 12.30963064 408.41919368 12.33569336 409.93017578 C12.37233189 412.10980937 12.38915838 414.28886325 12.40234375 416.46875 C12.4180542 417.7779541 12.43376465 419.0871582 12.44995117 420.43603516 C12.08195477 424.34602986 11.17529797 426.73668061 9.109375 430.0546875 C5.52471042 432.18610968 2.22314745 432.65461265 -1.890625 432.0546875 C-4.99227269 429.50444385 -6.61628916 427.87769503 -7.890625 424.0546875 C-7.9751637 421.6136099 -8.00668286 419.20209537 -7.98828125 416.76171875 C-7.9868663 416.05569016 -7.98545135 415.34966156 -7.98399353 414.62223816 C-7.97840264 412.37051124 -7.96585188 410.11888429 -7.953125 407.8671875 C-7.94810882 406.33919415 -7.94354612 404.81119923 -7.93945312 403.28320312 C-7.9284362 399.54032615 -7.91117787 395.79752377 -7.890625 392.0546875 C-8.89440186 392.08087158 -9.89817871 392.10705566 -10.93237305 392.1340332 C-14.66879852 392.22476918 -18.40512735 392.28202012 -22.14233398 392.3293457 C-23.75740961 392.35443709 -25.37237226 392.38851876 -26.98706055 392.43188477 C-29.31327206 392.49278036 -31.63797859 392.52094874 -33.96484375 392.54296875 C-35.04169685 392.58167839 -35.04169685 392.58167839 -36.14030457 392.62117004 C-40.06133978 392.62334664 -41.72213607 392.1892907 -44.82348633 389.71166992 C-48.11263779 385.48398179 -48.02695219 381.89016454 -47.98828125 376.76171875 C-47.9868663 376.05569016 -47.98545135 375.34966156 -47.98399353 374.62223816 C-47.97840264 372.37051124 -47.96585188 370.11888429 -47.953125 367.8671875 C-47.94810882 366.33919415 -47.94354612 364.81119923 -47.93945312 363.28320312 C-47.9284362 359.54032615 -47.91117787 355.79752377 -47.890625 352.0546875 C-48.89440186 352.08087158 -49.89817871 352.10705566 -50.93237305 352.1340332 C-54.66879852 352.22476918 -58.40512735 352.28202012 -62.14233398 352.3293457 C-63.75740961 352.35443709 -65.37237226 352.38851876 -66.98706055 352.43188477 C-69.31327206 352.49278036 -71.63797859 352.52094874 -73.96484375 352.54296875 C-75.04169685 352.58167839 -75.04169685 352.58167839 -76.14030457 352.62117004 C-80.09473768 352.62336518 -81.7205592 352.19281036 -84.83081055 349.66674805 C-87.43040901 346.37018482 -87.89935928 344.29867324 -88.171875 340.2109375 C-87.890625 338.0546875 -87.890625 338.0546875 -85.515625 335.0546875 C-84.649375 334.3946875 -83.783125 333.7346875 -82.890625 333.0546875 C-82.560625 332.7246875 -82.230625 332.3946875 -81.890625 332.0546875 C-79.36968424 331.96621007 -76.87631607 331.93941449 -74.35546875 331.95703125 C-73.22559288 331.95915367 -73.22559288 331.95915367 -72.07289124 331.96131897 C-69.6579294 331.96693374 -67.24305899 331.97948867 -64.828125 331.9921875 C-63.19466279 331.9972006 -61.56119914 332.00176384 -59.92773438 332.00585938 C-55.9153007 332.01605875 -51.90306564 332.03563105 -47.890625 332.0546875 C-47.890625 325.4546875 -47.890625 318.8546875 -47.890625 312.0546875 C-50.28699219 312.11269531 -52.68335938 312.17070312 -55.15234375 312.23046875 C-57.48230686 312.26950149 -59.81223307 312.2998388 -62.14233398 312.3293457 C-63.75740961 312.35443709 -65.37237226 312.38851876 -66.98706055 312.43188477 C-69.31327206 312.49278036 -71.63797859 312.52094874 -73.96484375 312.54296875 C-75.04169685 312.58167839 -75.04169685 312.58167839 -76.14030457 312.62117004 C-80.09473768 312.62336518 -81.7205592 312.19281036 -84.83081055 309.66674805 C-87.43040901 306.37018482 -87.89935928 304.29867324 -88.171875 300.2109375 C-87.890625 298.0546875 -87.890625 298.0546875 -85.515625 295.0546875 C-84.649375 294.3946875 -83.783125 293.7346875 -82.890625 293.0546875 C-82.560625 292.7246875 -82.230625 292.3946875 -81.890625 292.0546875 C-79.36968424 291.96621007 -76.87631607 291.93941449 -74.35546875 291.95703125 C-73.22559288 291.95915367 -73.22559288 291.95915367 -72.07289124 291.96131897 C-69.6579294 291.96693374 -67.24305899 291.97948867 -64.828125 291.9921875 C-63.19466279 291.9972006 -61.56119914 292.00176384 -59.92773438 292.00585938 C-55.9153007 292.01605875 -51.90306564 292.03563105 -47.890625 292.0546875 C-47.890625 285.4546875 -47.890625 278.8546875 -47.890625 272.0546875 C-50.28699219 272.11269531 -52.68335938 272.17070312 -55.15234375 272.23046875 C-57.48230686 272.26950149 -59.81223307 272.2998388 -62.14233398 272.3293457 C-63.75740961 272.35443709 -65.37237226 272.38851876 -66.98706055 272.43188477 C-69.31327206 272.49278036 -71.63797859 272.52094874 -73.96484375 272.54296875 C-75.04169685 272.58167839 -75.04169685 272.58167839 -76.14030457 272.62117004 C-80.09473768 272.62336518 -81.7205592 272.19281036 -84.83081055 269.66674805 C-87.43040901 266.37018482 -87.89935928 264.29867324 -88.171875 260.2109375 C-87.890625 258.0546875 -87.890625 258.0546875 -85.515625 255.0546875 C-84.21625 254.0646875 -84.21625 254.0646875 -82.890625 253.0546875 C-82.560625 252.7246875 -82.230625 252.3946875 -81.890625 252.0546875 C-79.36968424 251.96621007 -76.87631607 251.93941449 -74.35546875 251.95703125 C-73.22559288 251.95915367 -73.22559288 251.95915367 -72.07289124 251.96131897 C-69.6579294 251.96693374 -67.24305899 251.97948867 -64.828125 251.9921875 C-63.19466279 251.9972006 -61.56119914 252.00176384 -59.92773438 252.00585938 C-55.9153007 252.01605875 -51.90306564 252.03563105 -47.890625 252.0546875 C-47.890625 245.4546875 -47.890625 238.8546875 -47.890625 232.0546875 C-51.48517578 232.14169922 -51.48517578 232.14169922 -55.15234375 232.23046875 C-57.48230686 232.26950149 -59.81223307 232.2998388 -62.14233398 232.3293457 C-63.75740961 232.35443709 -65.37237226 232.38851876 -66.98706055 232.43188477 C-69.31327206 232.49278036 -71.63797859 232.52094874 -73.96484375 232.54296875 C-75.04169685 232.58167839 -75.04169685 232.58167839 -76.14030457 232.62117004 C-80.09473768 232.62336518 -81.7205592 232.19281036 -84.83081055 229.66674805 C-87.43040901 226.37018482 -87.89935928 224.29867324 -88.171875 220.2109375 C-87.890625 218.0546875 -87.890625 218.0546875 -85.515625 215.0546875 C-84.21625 214.0646875 -84.21625 214.0646875 -82.890625 213.0546875 C-82.560625 212.7246875 -82.230625 212.3946875 -81.890625 212.0546875 C-79.36968424 211.96621007 -76.87631607 211.93941449 -74.35546875 211.95703125 C-73.22559288 211.95915367 -73.22559288 211.95915367 -72.07289124 211.96131897 C-69.6579294 211.96693374 -67.24305899 211.97948867 -64.828125 211.9921875 C-63.19466279 211.9972006 -61.56119914 212.00176384 -59.92773438 212.00585938 C-55.9153007 212.01605875 -51.90306564 212.03563105 -47.890625 212.0546875 C-47.890625 205.4546875 -47.890625 198.8546875 -47.890625 192.0546875 C-51.48517578 192.14169922 -51.48517578 192.14169922 -55.15234375 192.23046875 C-57.48230686 192.26950149 -59.81223307 192.2998388 -62.14233398 192.3293457 C-63.75740961 192.35443709 -65.37237226 192.38851876 -66.98706055 192.43188477 C-69.31327206 192.49278036 -71.63797859 192.52094874 -73.96484375 192.54296875 C-75.04169685 192.58167839 -75.04169685 192.58167839 -76.14030457 192.62117004 C-80.09473768 192.62336518 -81.7205592 192.19281036 -84.83081055 189.66674805 C-87.43040901 186.37018482 -87.89935928 184.29867324 -88.171875 180.2109375 C-87.890625 178.0546875 -87.890625 178.0546875 -85.515625 175.0546875 C-84.21625 174.0646875 -84.21625 174.0646875 -82.890625 173.0546875 C-82.560625 172.7246875 -82.230625 172.3946875 -81.890625 172.0546875 C-79.36968424 171.96621007 -76.87631607 171.93941449 -74.35546875 171.95703125 C-73.22559288 171.95915367 -73.22559288 171.95915367 -72.07289124 171.96131897 C-69.6579294 171.96693374 -67.24305899 171.97948867 -64.828125 171.9921875 C-63.19466279 171.9972006 -61.56119914 172.00176384 -59.92773438 172.00585938 C-55.9153007 172.01605875 -51.90306564 172.03563105 -47.890625 172.0546875 C-47.890625 165.4546875 -47.890625 158.8546875 -47.890625 152.0546875 C-51.48517578 152.14169922 -51.48517578 152.14169922 -55.15234375 152.23046875 C-57.48230686 152.26950149 -59.81223307 152.2998388 -62.14233398 152.3293457 C-63.75740961 152.35443709 -65.37237226 152.38851876 -66.98706055 152.43188477 C-69.31327206 152.49278036 -71.63797859 152.52094874 -73.96484375 152.54296875 C-75.04169685 152.58167839 -75.04169685 152.58167839 -76.14030457 152.62117004 C-80.09473768 152.62336518 -81.7205592 152.19281036 -84.83081055 149.66674805 C-87.43040901 146.37018482 -87.89935928 144.29867324 -88.171875 140.2109375 C-87.890625 138.0546875 -87.890625 138.0546875 -85.515625 135.0546875 C-84.21625 134.0646875 -84.21625 134.0646875 -82.890625 133.0546875 C-82.560625 132.7246875 -82.230625 132.3946875 -81.890625 132.0546875 C-79.36968424 131.96621007 -76.87631607 131.93941449 -74.35546875 131.95703125 C-73.22559288 131.95915367 -73.22559288 131.95915367 -72.07289124 131.96131897 C-69.6579294 131.96693374 -67.24305899 131.97948867 -64.828125 131.9921875 C-63.19466279 131.9972006 -61.56119914 132.00176384 -59.92773438 132.00585938 C-55.9153007 132.01605875 -51.90306564 132.03563105 -47.890625 132.0546875 C-47.890625 125.4546875 -47.890625 118.8546875 -47.890625 112.0546875 C-50.28699219 112.11269531 -52.68335938 112.17070312 -55.15234375 112.23046875 C-57.48230686 112.26950149 -59.81223307 112.2998388 -62.14233398 112.3293457 C-63.75740961 112.35443709 -65.37237226 112.38851876 -66.98706055 112.43188477 C-69.31327206 112.49278036 -71.63797859 112.52094874 -73.96484375 112.54296875 C-75.04169685 112.58167839 -75.04169685 112.58167839 -76.14030457 112.62117004 C-80.09473768 112.62336518 -81.7205592 112.19281036 -84.83081055 109.66674805 C-87.43040901 106.37018482 -87.89935928 104.29867324 -88.171875 100.2109375 C-87.890625 98.0546875 -87.890625 98.0546875 -85.515625 95.0546875 C-84.21625 94.0646875 -84.21625 94.0646875 -82.890625 93.0546875 C-82.395625 92.5596875 -82.395625 92.5596875 -81.890625 92.0546875 C-79.36968424 91.96621007 -76.87631607 91.93941449 -74.35546875 91.95703125 C-73.22559288 91.95915367 -73.22559288 91.95915367 -72.07289124 91.96131897 C-69.6579294 91.96693374 -67.24305899 91.97948867 -64.828125 91.9921875 C-63.19466279 91.9972006 -61.56119914 92.00176384 -59.92773438 92.00585938 C-55.91532915 92.01690796 -51.90299259 92.03418244 -47.890625 92.0546875 C-47.90727959 91.20690483 -47.90727959 91.20690483 -47.92427063 90.34199524 C-48.03498513 84.45349956 -48.11034184 78.56530003 -48.1652832 72.67602539 C-48.19041009 70.4789631 -48.22451746 68.28198426 -48.26782227 66.08520508 C-48.32855262 62.92508345 -48.35685333 59.76606793 -48.37890625 56.60546875 C-48.40471268 55.62508133 -48.4305191 54.64469391 -48.45710754 53.63459778 C-48.45992405 46.76905671 -48.45992405 46.76905671 -45.42260742 42.95776367 C-44.58705322 42.32974854 -43.75149902 41.7017334 -42.890625 41.0546875 C-42.560625 40.7246875 -42.230625 40.3946875 -41.890625 40.0546875 C-39.36968424 39.96621007 -36.87631607 39.93941449 -34.35546875 39.95703125 C-33.22559288 39.95915367 -33.22559288 39.95915367 -32.07289124 39.96131897 C-29.6579294 39.96693374 -27.24305899 39.97948867 -24.828125 39.9921875 C-23.19466279 39.9972006 -21.56119914 40.00176384 -19.92773438 40.00585938 C-15.91532915 40.01690796 -11.90299259 40.03418244 -7.890625 40.0546875 C-7.91680908 39.05091064 -7.94299316 38.04713379 -7.9699707 37.01293945 C-8.06070668 33.27651398 -8.11795762 29.54018515 -8.1652832 25.80297852 C-8.19037459 24.18790289 -8.22445626 22.57294024 -8.26782227 20.95825195 C-8.32871786 18.63204044 -8.35688624 16.30733391 -8.37890625 13.98046875 C-8.40471268 13.26256668 -8.4305191 12.54466461 -8.45710754 11.80500793 C-8.45933334 7.79534246 -8.04276617 6.23548401 -5.42260742 3.12182617 C-4.58705322 2.43967041 -3.75149902 1.75751465 -2.890625 1.0546875 C-1.890625 0.0546875 -1.890625 0.0546875 0 0 Z M-27.890625 60.0546875 C-27.890625 163.0146875 -27.890625 265.9746875 -27.890625 372.0546875 C75.069375 372.0546875 178.029375 372.0546875 284.109375 372.0546875 C285.470625 307.0859375 285.470625 307.0859375 286.859375 240.8046875 C287.46023926 220.4183252 287.46023926 220.4183252 288.07324219 199.62011719 C288.22054757 187.25747565 288.22054757 187.25747565 288.30889893 174.89434814 C288.34936035 169.45065899 288.50884034 164.02712874 288.75469971 158.59014893 C289.97165929 130.69305191 289.46136113 104.83433279 269.9392615 82.75872833 C254.56069082 66.04202843 237.37079118 56.76857768 214.43885279 55.222754 C204.09271401 54.79273531 193.79553805 55.03758224 183.45530669 55.50516586 C176.08876989 55.83069288 168.73107646 55.85767721 161.35693359 55.89208984 C142.02003144 56.12065312 122.68923375 56.73496245 103.359375 57.3046875 C38.390625 58.6659375 38.390625 58.6659375 -27.890625 60.0546875 Z " fill="#000000" transform="translate(127.890625,39.9453125)"/>
<path d="M0 0 C1.43640295 1.05702512 2.85335422 2.14097515 4.25 3.25 C4.97574219 3.80171875 5.70148438 4.3534375 6.44921875 4.921875 C20.83164561 16.66877861 28.81646209 34.30930761 35.1875 51.3125 C35.48229248 52.09778076 35.77708496 52.88306152 36.08081055 53.69213867 C37.71501127 58.22856332 38.74668307 62.45256144 39.25 67.25 C39.85440918 67.35304443 40.45881836 67.45608887 41.08154297 67.56225586 C47.45067339 68.73048169 53.33935932 70.48274497 59.375 72.8125 C60.2829834 73.16256104 61.1909668 73.51262207 62.12646484 73.87329102 C82.04984787 81.78070081 100.36556846 93.57099539 110.25 113.25 C114.6443918 123.70733085 114.17252396 133.39956071 110.57421875 144.04296875 C102.36640272 163.92089489 84.07276452 174.8557751 65.25 183.25 C62.78515625 183.96875 62.78515625 183.96875 61.25 184.25 C61.188125 185.36375 61.12625 186.4775 61.0625 187.625 C59.9872207 195.83490277 55.98531133 202.61022433 49.5703125 207.78125 C44.95111104 210.70518897 39.50781115 212.84277361 34.0625 213.5234375 C32.00579233 214.12164445 32.00579233 214.12164445 31.046875 216.515625 C30.70140625 217.50046875 30.3559375 218.4853125 30 219.5 C22.58289155 238.59848719 9.84092469 253.94842673 -8.515625 262.90234375 C-17.71827517 266.73678132 -28.24390321 266.52730261 -37.5625 263.1875 C-43.41514321 260.65088224 -48.05226862 257.53297672 -52.75 253.25 C-53.53761719 252.57710938 -54.32523437 251.90421875 -55.13671875 251.2109375 C-67.72957812 239.70537368 -74.92194822 223.99761706 -80.75 208.25 C-81.17152344 207.15042969 -81.59304687 206.05085937 -82.02734375 204.91796875 C-83.61354013 200.70128299 -84.94676328 196.69142654 -85.75 192.25 C-86.91273438 191.9096875 -88.07546875 191.569375 -89.2734375 191.21875 C-113.1425614 184.06429749 -139.96105913 173.41034303 -153.21875 150.73828125 C-158.787381 139.90858898 -160.87427426 128.82613982 -157.91015625 116.859375 C-150.13571053 96.86046413 -132.32849819 84.4129016 -113.5 75.6875 C-110.88422786 74.54690168 -109.68734884 74.25 -106.75 74.25 C-106.70875 72.97125 -106.6675 71.6925 -106.625 70.375 C-105.7898565 63.0094983 -101.82678409 56.86228621 -96.4375 51.875 C-92.12077794 48.49627963 -86.76554414 45.39381826 -81.2109375 45.12890625 C-78.35880621 44.41108491 -78.35880621 44.41108491 -76.828125 40.890625 C-76.20436188 39.43315744 -75.59586035 37.96909582 -75 36.5 C-71.41042925 28.29119802 -67.1965333 21.36932598 -61.75 14.25 C-60.92435547 13.13044922 -60.92435547 13.13044922 -60.08203125 11.98828125 C-45.34397491 -6.5343624 -20.59965088 -13.0893615 0 0 Z " fill="#020202" transform="translate(278.75,126.75)"/>
<path d="M0 0 C168.96 0 337.92 0 512 0 C512 168.96 512 337.92 512 512 C343.04 512 174.08 512 0 512 C0 343.04 0 174.08 0 0 Z M20 20 C20 175.76 20 331.52 20 492 C175.76 492 331.52 492 492 492 C492.33 456.03 492.66 420.06 493 383 C498 378 498 378 502 377 C502 368.75 502 360.5 502 352 C498.535 350.515 498.535 350.515 495 349 C492.80288017 345.46550288 492.40244781 342.09750076 493 338 C495.93823004 334.32721245 497.38330197 333.15417451 502 332 C502 323.75 502 315.5 502 307 C498.535 305.515 498.535 305.515 495 304 C493.03229596 300.70921148 492.74848873 297.8140671 492.73828697 294.02751446 C492.73082073 293.04538542 492.72335449 292.06325638 492.715662 291.05136585 C492.71759748 289.98066192 492.71953297 288.90995798 492.7215271 287.80680847 C492.71574142 286.66598312 492.70995575 285.52515778 492.70399475 284.34976196 C492.68992876 281.18130106 492.68478768 278.01296867 492.68335578 274.84448145 C492.67957868 271.37593442 492.66425053 267.90743492 492.6503849 264.43891621 C492.6251983 257.70587446 492.61021797 250.97284852 492.59880099 244.23977088 C492.58515491 236.45168185 492.55881875 228.6636698 492.5324707 220.87561035 C492.46917692 200.31293732 492.42314742 179.75021408 492.375 159.1875 C492.25125 113.255625 492.1275 67.32375 492 20 C336.24 20 180.48 20 20 20 Z " fill="#000000" transform="translate(0,0)"/>
<path d="M0 0 C0.66046326 -0.00006042 1.32092651 -0.00012085 2.00140381 -0.00018311 C17.76774183 0.02028586 33.3187989 1.17216273 48.8125 4.1875 C49.29745085 7.10330509 49.77551802 10.01998754 50.25 12.9375 C50.38470703 13.74316406 50.51941406 14.54882812 50.65820312 15.37890625 C52.47996684 26.66495463 52.97476512 37.82824107 52.9375 49.25 C52.94136719 50.43916016 52.94523437 51.62832031 52.94921875 52.85351562 C52.94543324 56.30021945 52.88765089 59.74169249 52.8125 63.1875 C52.8137085 64.23953613 52.81491699 65.29157227 52.81616211 66.37548828 C52.72862401 69.13602405 52.57847746 71.53401953 51.8125 74.1875 C48.86328125 76.546875 48.86328125 76.546875 45.125 77.9375 C36.28013522 81.64925378 32.96397953 85.33714132 29.1875 94.0625 C28.82398438 95.00867188 28.46046875 95.95484375 28.0859375 96.9296875 C26.8125 99.1875 26.8125 99.1875 24.96896362 99.81854248 C21.47978834 100.41551868 17.97527894 100.3709378 14.4453125 100.390625 C13.62165192 100.39745804 12.79799133 100.40429108 11.94937134 100.41133118 C9.27870622 100.42843896 6.60821678 100.43466415 3.9375 100.4375 C2.583078 100.44050613 2.583078 100.44050613 1.20129395 100.443573 C-13.79532794 100.45175929 -28.58062774 99.94037369 -43.1875 96.1875 C-43.67722672 93.96062945 -44.15357368 91.73081643 -44.625 89.5 C-44.89183594 88.25863281 -45.15867188 87.01726562 -45.43359375 85.73828125 C-47.78169135 72.76427107 -47.30883106 59.50320639 -47.25 46.375 C-47.24497317 44.41080844 -47.24041237 42.44661562 -47.23632812 40.48242188 C-47.22542035 35.71741649 -47.20822143 30.9524724 -47.1875 26.1875 C-46.36693115 25.8577417 -45.5463623 25.5279834 -44.70092773 25.18823242 C-43.62270752 24.74842041 -42.5444873 24.3086084 -41.43359375 23.85546875 C-39.83149048 23.2061438 -39.83149048 23.2061438 -38.19702148 22.54370117 C-30.09670916 18.89340224 -26.43066508 13.30881421 -23.1875 5.1875 C-22.82359939 3.86218297 -22.4784286 2.53072353 -22.1875 1.1875 C-14.79372554 0.02787414 -7.47412183 -0.00470011 0 0 Z " fill="#FDE4B2" transform="translate(253.1875,205.8125)"/>
<path d="M0 0 C16.4613223 4.10078877 35.2050385 12.55755776 44.921875 27.1328125 C47.96255766 32.39892233 49.75298533 36.76097868 49 43 C43.81234117 59.20777023 30.39185651 67.55758768 16.03125 74.98046875 C13 76 13 76 11.04153442 75.21153259 C10.36782806 74.81172684 9.6941217 74.41192108 9 74 C8.06376297 73.46524803 8.06376297 73.46524803 7.10861206 72.91969299 C4.06655677 70.75384862 2.27987744 69.12218376 1.35797119 65.42575073 C1.10888636 62.21169178 1.08325749 59.06322923 1.1328125 55.83984375 C1.12289276 54.65838272 1.11297302 53.47692169 1.10275269 52.25965881 C1.0776479 48.48490433 1.09994599 44.71222356 1.125 40.9375 C1.11823394 37.18837586 1.10175794 33.4394043 1.08297729 29.69032288 C1.07478648 27.36175427 1.07527558 25.03313192 1.08621216 22.70457458 C1.10486907 15.09145372 0.6879306 7.58155437 0 0 Z " fill="#FBE2B1" transform="translate(323,216)"/>
<path d="M0 0 C2.84751904 2.08505587 4.78976877 3.67076354 5.69602966 7.16627502 C5.87735036 9.97164738 5.83433942 12.69419197 5.71296692 15.50285339 C5.69831894 16.53690811 5.68367096 17.57096283 5.6685791 18.63635254 C5.61631505 21.94375157 5.51671664 25.24751075 5.41218567 28.55363464 C5.30821664 32.86979799 5.22447911 37.18607898 5.15046692 41.50285339 C5.13001312 42.54964264 5.10955933 43.59643188 5.08848572 44.67494202 C4.96365543 54.18255541 5.8076562 63.45619327 7.09968567 72.86613464 C5.68647115 72.57196071 4.27442266 72.27218256 2.86286926 71.97013855 C2.07641022 71.80381927 1.28995117 71.6375 0.47966003 71.46614075 C-3.31926897 70.50840749 -6.75650836 68.93848442 -10.27531433 67.24113464 C-11.01064392 66.88922058 -11.74597351 66.53730652 -12.50358582 66.17472839 C-23.41277961 60.80198929 -36.19257756 52.720341 -41.27140808 41.12785339 C-43.05470176 34.71464197 -42.98080976 28.17270889 -39.96281433 22.17863464 C-32.22898991 10.24398637 -20.36704127 3.2935468 -7.80265808 -2.73542786 C-4.70902742 -3.38337514 -2.61788981 -1.56202293 0 0 Z " fill="#FCE3B2" transform="translate(181.9003143310547,223.1338653564453)"/>
<path d="M0 0 C0.5676709 0.06058594 1.1353418 0.12117188 1.72021484 0.18359375 C13.47631648 1.38202011 25.0544607 2.10348121 36.8671875 1.88671875 C38.27289505 1.86546432 38.27289505 1.86546432 39.70700073 1.84378052 C44.42506509 1.76936692 49.13743406 1.65593812 53.85302734 1.48632812 C55.61553227 1.45168966 57.37806491 1.41842635 59.140625 1.38671875 C60.34862259 1.32299324 60.34862259 1.32299324 61.58102417 1.25798035 C65.03151972 1.22652711 67.13464203 1.25219344 69.81140137 3.56533813 C71.42871094 5.47583008 71.42871094 5.47583008 72.8036499 7.39265442 C73.92382109 9.14961113 73.92382109 9.14961113 76 10 C73.03314496 23.06956974 64.22129838 36.97538321 53.25 44.5625 C47.63562534 48.06628567 42.6719396 49.74546811 36 49 C25.54856234 46.47142637 17.54728294 37.94210453 12 29 C0 8.3046875 0 8.3046875 0 0 Z " fill="#FCE4B2" transform="translate(216,323)"/>
<path d="M0 0 C12.23693617 9.6386826 20.32927598 27.20223342 25.0859375 41.78515625 C25.0859375 42.44515625 25.0859375 43.10515625 25.0859375 43.78515625 C22.77327346 43.6419478 20.46081315 43.4954482 18.1484375 43.34765625 C16.86066406 43.26644531 15.57289063 43.18523437 14.24609375 43.1015625 C11.46654771 42.91291937 8.72661765 42.61388357 5.96484375 42.25170898 C0.89730001 41.68219583 -4.04956441 41.81321739 -9.13671875 42.00390625 C-11.07611457 42.05062 -13.01557241 42.09481532 -14.95507812 42.13671875 C-17.97381076 42.20458307 -20.98909725 42.2856694 -24.00610352 42.40917969 C-40.72193432 43.06678044 -40.72193432 43.06678044 -46.10107422 39.921875 C-48.34792742 37.56612194 -49.80838866 35.84636241 -50.9140625 32.78515625 C-49.73620561 20.50046789 -39.62222877 8.80883784 -30.9140625 0.78515625 C-20.8186812 -7.0518259 -10.68250834 -6.78012264 0 0 Z " fill="#FCE3B2" transform="translate(270.9140625,145.21484375)"/>
<path d="M0 0 C4.15132171 0.31616026 6.66810634 0.77227556 10.234375 3.0546875 C12.5467856 6.75454446 12.51491886 8.75980585 11.73828125 12.96484375 C10.79141563 16.11126057 9.95175087 17.34926198 7.109375 19.0546875 C4.0350743 19.97985089 1.3124268 20.36871219 -1.890625 20.0546875 C-5.10480029 18.04582794 -6.42403929 16.50686998 -7.5859375 12.890625 C-8.03236952 10.46365822 -8.21004824 8.50359899 -7.890625 6.0546875 C-5.515625 3.0546875 -5.515625 3.0546875 -2.890625 1.0546875 C-1.890625 0.0546875 -1.890625 0.0546875 0 0 Z " fill="#7BAFF6" transform="translate(307.890625,299.9453125)"/>
<path d="M0 0 C4.15132171 0.31616026 6.66810634 0.77227556 10.234375 3.0546875 C12.5467856 6.75454446 12.51491886 8.75980585 11.73828125 12.96484375 C10.79141563 16.11126057 9.95175087 17.34926198 7.109375 19.0546875 C4.0350743 19.97985089 1.3124268 20.36871219 -1.890625 20.0546875 C-5.10480029 18.04582794 -6.42403929 16.50686998 -7.5859375 12.890625 C-8.03236952 10.46365822 -8.21004824 8.50359899 -7.890625 6.0546875 C-5.515625 3.0546875 -5.515625 3.0546875 -2.890625 1.0546875 C-1.890625 0.0546875 -1.890625 0.0546875 0 0 Z " fill="#7BAFF6" transform="translate(199.890625,191.9453125)"/>
</svg>
